<svg xmlns="http://www.w3.org/2000/svg" viewBox="0 0 96 96" fill="none"><g transform="translate(0 6)" fill="#1899D6"><path d="M20 14H76C83 14 88 19 88 26V58C88 65 83 70 76 70H46L28 84C26 85.5 23 84.5 23 82V70H20C13 70 8 65 8 58V26C8 19 13 14 20 14Z"/></g><g fill="#1CB0F6"><path d="M20 14H76C83 14 88 19 88 26V58C88 65 83 70 76 70H46L28 84C26 85.5 23 84.5 23 82V70H20C13 70 8 65 8 58V26C8 19 13 14 20 14Z"/></g><circle cx="30" cy="42" r="6" fill="#fff"/><circle cx="48" cy="42" r="6" fill="#fff"/><circle cx="66" cy="42" r="6" fill="#fff"/><ellipse cx="24" cy="24" rx="8" ry="4" transform="rotate(-10 24 24)" fill="#fff" opacity="0.45"/></svg>
