<svg xmlns="http://www.w3.org/2000/svg" viewBox="0 0 96 96" fill="none"><g transform="translate(0 6)" fill="#8E4A1A"><rect x="12" y="40" width="72" height="40" rx="8"/></g><g fill="#B5652B"><rect x="12" y="40" width="72" height="40" rx="8"/></g><g transform="translate(0 4)" fill="#B5652B"><path d="M12 44C12 28 24 18 48 18C72 18 84 28 84 44Z"/></g><g fill="#D98E55"><path d="M12 44C12 28 24 18 48 18C72 18 84 28 84 44Z"/></g><rect x="12" y="40" width="72" height="8" fill="#95A5B3"/><rect x="20" y="18" width="10" height="66" rx="3" fill="#C3CFD9"/><rect x="66" y="18" width="10" height="66" rx="3" fill="#C3CFD9"/><rect x="39" y="36" width="18" height="22" rx="5" fill="#95A5B3"/><rect x="39" y="34" width="18" height="22" rx="5" fill="#C3CFD9"/><circle cx="48" cy="44" r="3" fill="#95A5B3"/><rect x="46.5" y="44" width="3" height="6" rx="1.5" fill="#95A5B3"/><ellipse cx="30" cy="26" rx="8" ry="4" transform="rotate(-30 30 26)" fill="#fff" opacity="0.45"/></svg>
