<svg xmlns="http://www.w3.org/2000/svg" viewBox="0 0 96 96" fill="none"><g transform="translate(0 6)" fill="#D97E00"><path transform="translate(0 0) scale(1)" d="M48 86C31 86 20 74 20 58C20 44 28 36 34 27C36 34 40 38 44 39C42 28 47 17 56 10C57 22 66 30 72 40C76 46 78 52 78 58C78 74 66 86 48 86Z"/></g><g fill="#FF9600"><path transform="translate(0 0) scale(1)" d="M48 86C31 86 20 74 20 58C20 44 28 36 34 27C36 34 40 38 44 39C42 28 47 17 56 10C57 22 66 30 72 40C76 46 78 52 78 58C78 74 66 86 48 86Z"/></g><g fill="#FFC800"><path transform="translate(0 0) scale(1)" d="M48 80C39 80 33 73 33 64C33 56 38 51 42 46C43 51 46 53 49 53C48 47 51 41 56 37C57 45 63 50 63 60C63 72 57 80 48 80Z"/></g><g transform="rotate(-30 48 58)"><rect x="18" y="50" width="60" height="18" rx="9" fill="#FFE0C2"/><rect x="40" y="50" width="16" height="18" fill="#F5C49A"/><circle cx="45" cy="56" r="1.6" fill="#D9A06C"/><circle cx="51" cy="62" r="1.6" fill="#D9A06C"/><circle cx="51" cy="56" r="1.6" fill="#D9A06C"/><circle cx="45" cy="62" r="1.6" fill="#D9A06C"/></g><ellipse cx="38" cy="40" rx="5" ry="9" transform="rotate(20 38 40)" fill="#fff" opacity="0.45"/></svg>
