<svg xmlns="http://www.w3.org/2000/svg" viewBox="0 0 80 80" fill="none">
  <!-- Trophy base -->
  <rect x="28" y="62" width="24" height="6" rx="2" fill="#92400E"/>
  <rect x="32" y="56" width="16" height="8" rx="1" fill="#B45309"/>
  <!-- Trophy stem -->
  <rect x="36" y="48" width="8" height="10" rx="2" fill="#D97706"/>
  <!-- Trophy cup -->
  <path d="M24 18 L24 34 Q24 48, 40 48 Q56 48, 56 34 L56 18 Z" fill="#FBBF24"/>
  <path d="M26 20 L26 33 Q26 46, 40 46 Q54 46, 54 33 L54 20 Z" fill="#FDE047"/>
  <!-- Cup highlight -->
  <ellipse cx="34" cy="30" rx="4" ry="8" fill="white" opacity="0.25"/>
  <!-- Handles -->
  <path d="M24 22 C18 22, 16 30, 22 34" stroke="#D97706" stroke-width="4" fill="none" stroke-linecap="round"/>
  <path d="M56 22 C62 22, 64 30, 58 34" stroke="#D97706" stroke-width="4" fill="none" stroke-linecap="round"/>
  <!-- Star on cup -->
  <polygon points="40,24 42,30 48,30 43,34 45,40 40,36 35,40 37,34 32,30 38,30" fill="#F59E0B"/>
  <!-- Sparkles -->
  <circle cx="18" cy="14" r="2" fill="#FBBF24" opacity="0.6"/>
  <circle cx="62" cy="12" r="1.5" fill="#FBBF24" opacity="0.7"/>
  <path d="M12 8 L14 6 L12 4 L10 6 Z" fill="#FDE047"/>
  <path d="M66 6 L68 4 L66 2 L64 4 Z" fill="#FDE047"/>
  <!-- Confetti bits -->
  <circle cx="20" cy="6" r="1" fill="#3D5AFE"/>
  <circle cx="60" cy="8" r="1" fill="#EF4444"/>
  <circle cx="14" cy="18" r="0.8" fill="#22C55E"/>
</svg>
